<svg width="252" height="180" viewBox="0 0 252 180" fill="none" xmlns="http://www.w3.org/2000/svg">
<path d="M114.649 90.8483C110.666 92.8712 106.98 95.4419 103.696 98.4871C102.069 100.042 100.211 101.33 98.1907 102.307C94.4091 105.097 90.3533 107.531 86.4346 109.965C83.7734 112.085 81.8458 115.001 80.9288 118.297C80.003 121.71 78.6186 124.98 76.8141 128.013C75.7757 129.755 75.423 131.496 74.4041 133.238L69.2314 140.501C67.5268 142.598 66.1357 145.033 64.431 147.111C63.7453 148.496 62.7068 149.545 62.021 150.93C59.9637 153.364 58.2395 155.798 56.143 158.232C54.2478 161.422 51.9344 164.337 49.2656 166.9C47.0837 169.572 44.5373 171.917 41.7025 173.866C39.2925 175.252 37.5879 177.329 34.4921 177.686C33.835 177.959 33.124 178.074 32.4152 178.022C31.1787 178.392 30.0176 178.982 28.9863 179.764C27.5952 180.456 26.5763 179.407 25.2048 179.407V177.428C24.1663 177.785 23.4805 178.477 22.4421 178.814C20.7178 177.785 19.0132 176.835 16.9363 175.351C14.5263 173.609 11.7832 171.868 9.09888 170.126C8.4271 169.693 7.90215 169.063 7.59408 168.32C7.286 167.578 7.20946 166.758 7.37465 165.97C9.78466 157.639 12.8804 149.287 19.1308 142.341C25.0827 135.518 31.3945 129.025 38.0385 122.888C45.1775 116.27 52.7088 110.097 60.5907 104.404C62.4518 103.331 63.8492 101.595 64.5094 99.536C64.9081 96.7262 65.4773 93.9438 66.214 91.2045C66.5667 89.8192 65.881 88.7704 63.8236 88.0777C60.7279 86.3362 56.9463 86.3362 53.1452 86.3362C48.3447 86.6925 43.8578 88.3152 39.0574 89.1068C37.6859 89.463 36.2947 90.1557 34.9232 90.5119C31.2417 91.6603 27.3204 91.7766 23.5785 90.8483C20.8158 90.1557 17.7004 90.1557 14.9769 89.463C13.8646 89.4327 12.7866 89.0675 11.8812 88.4142C8.78538 85.6436 5.33692 83.2095 2.24114 80.4983C1.29063 79.6513 0.600758 78.5465 0.253444 77.3152C-0.0938691 76.084 -0.0840312 74.7779 0.28179 73.5521C2.46964 67.8042 6.15192 62.7587 10.9407 58.9472C17.1322 53.3863 23.3238 47.8452 29.5153 42.6207C35.7069 37.3962 41.5654 31.8551 47.7569 26.9868C52.8667 22.9552 58.2052 19.2283 63.7453 15.8254C68.2126 13.0351 72.6799 10.6009 77.1472 8.16677C79.2242 7.13771 81.2815 6.1878 83.0253 5.04C84.398 4.31665 85.9248 3.943 87.473 3.95156C91.2546 4.28799 94.6835 4.98063 97.0935 7.41476C98.8311 8.6449 100.343 10.1718 101.561 11.9268C102.563 13.7004 103.032 15.7305 102.91 17.769C102.788 19.8075 102.081 21.7659 100.875 23.4049C99.9849 24.7292 98.8254 25.8467 97.474 26.6828C96.1225 27.5188 94.6101 28.0543 93.0376 28.2534C88.4753 29.244 84.0752 30.883 79.9687 33.1216C75.67 35.4769 71.5329 38.1215 67.5856 41.0375C62.7656 44.857 58.6313 48.9534 54.164 52.9114C47.9725 58.1161 42.4079 64.0332 35.5893 68.1891C34.8095 68.6457 34.1135 69.2349 33.532 69.9306C34.6533 69.6532 35.8072 69.5333 36.9609 69.5743C42.2158 68.8815 47.5376 68.8815 52.7925 69.5743C59.1868 70.0547 65.4608 71.5854 71.3671 74.1062C75.8739 76.3664 79.7677 79.7015 82.7118 83.823C83.6091 84.816 84.3975 85.9042 85.063 87.0685C85.7488 87.7611 86.4346 88.1173 87.0224 87.4247C87.6394 87.1514 88.2189 86.7988 88.7466 86.3758C93.5666 83.9417 98.0339 81.5075 102.854 79.4296C109.473 76.2211 116.382 73.663 123.486 71.7908C123.839 72.8199 124.524 74.2249 124.858 75.254C125.176 75.7737 125.301 76.3911 125.21 76.9955C124.172 78.737 121.762 79.7858 121.429 82.2002C118.608 84.5856 116.301 87.5287 114.649 90.8483V90.8483ZM62.021 123.165C61.7588 123.129 61.5167 123.003 61.3353 122.809C58.2395 125.243 54.791 127.677 52.0479 130.111C47.9137 133.931 43.7794 137.75 39.9979 141.569C38.979 142.618 38.2933 143.548 37.2548 144.696C35.9834 146.397 34.6161 148.022 33.1597 149.564C32.256 150.524 31.4487 151.571 30.7497 152.691C29.0451 156.154 29.0451 159.637 28.6924 163.457C29.6537 162.848 30.6961 162.382 31.7882 162.072C33.7476 160.667 36.2555 158.945 38.6655 157.56C42.6756 154.68 46.0679 151.011 48.6386 146.774C53.106 139.491 56.9071 132.189 61.0218 124.887C61.4319 124.362 61.7682 123.783 62.021 123.165V123.165Z" fill="white"/>
<path d="M198.902 121.067C201.645 113.784 204.055 106.146 206.465 98.487C208.875 89.8191 211.637 81.4678 213.695 72.7603C215.066 66.8234 216.438 60.6094 218.162 54.7121C220.265 47.3857 222.791 40.1897 225.725 33.161C229.507 24.1369 233.994 15.8054 237.775 6.76153C238.387 5.01468 239.449 3.46408 240.851 2.26926C241.537 2.9619 240.166 3.65455 240.851 4.34719C240.851 4.7034 241.185 4.34719 241.185 4.01076C241.87 1.57662 244.28 2.03179 245.319 0.527767C245.319 0.191341 246.005 1.22041 246.69 1.22041C247.043 1.22041 247.043 1.93284 246.69 2.26926C246.357 3.31812 246.005 4.34719 245.652 5.39604C247.043 5.75226 247.376 4.7034 247.729 4.01076C248.221 3.03558 248.791 2.1024 249.433 1.22041C249.786 0.883982 250.139 -0.5013 250.825 0.191341C251.843 0.527767 251.158 1.57662 251.158 2.17031C251.086 2.65498 251.109 3.14924 251.227 3.6247C251.345 4.10016 251.554 4.54745 251.843 4.94088C251.843 5.29709 252.196 5.98973 251.843 6.34595C251.333 8.15697 251.333 10.0761 251.843 11.8871C251.901 13.2705 251.553 14.6402 250.844 15.8252C248.767 20.6737 246.71 25.2056 244.966 30.0541C241.87 37.9699 238.441 46.0442 235.346 54.0392C233.527 58.0005 231.918 62.0565 230.526 66.1901C229.186 69.8288 228.054 73.5422 227.136 77.3119C226.764 78.9946 226.185 80.6234 225.412 82.1604C221.8 90.863 218.693 99.7702 216.105 108.837C214.912 113.108 213.419 117.288 211.637 121.344C209.227 126.212 207.503 131.773 205.446 136.622L200.273 150.178C200.247 150.603 200.105 151.013 199.863 151.362C199.621 151.711 199.288 151.986 198.902 152.157C198.216 153.206 196.942 153.898 196.492 155.64C196.235 156.158 195.89 156.627 195.473 157.025C193.063 157.718 191.672 159.796 189.967 161.893V162.23C187.89 162.586 185.833 164.664 183.423 163.279C182.737 162.922 181.699 162.586 181.013 162.23C178.137 161.684 175.566 160.076 173.802 157.718C170.736 154.274 168.603 150.089 167.611 145.567C165.427 138.311 163.925 130.863 163.124 123.323C162.791 120.196 162.791 116.733 162.438 113.606C162.105 104.562 162.438 95.7956 162.791 86.8506V86.158C161.86 87.3987 161.193 88.8203 160.831 90.3336C156.207 101.837 150.866 113.034 144.843 123.857C142.884 127.677 140.376 131.496 138.318 135.731C135.556 141.272 131.441 145.112 127.64 148.931C126.268 149.96 124.897 150.653 123.858 151.365C123.604 151.529 123.308 151.616 123.006 151.616C122.704 151.616 122.408 151.529 122.154 151.365C121.468 150.653 120.077 150.653 119.058 149.624C118.705 150.316 118.705 151.009 118.372 151.603C118.02 151.959 118.02 151.603 118.02 151.266C117.334 150.217 116.295 149.861 115.61 150.554C115.276 150.91 115.61 152.295 114.571 151.959C113.885 151.603 112.866 151.603 112.612 150.554C109.636 147.102 107.413 143.056 106.087 138.68C105.338 135.729 105.099 132.669 105.382 129.636C106.087 125.124 106.087 120.612 106.42 115.783C106.551 110.318 107.009 104.866 107.792 99.4567C108.144 92.5105 108.477 85.6038 109.516 78.6181C110.202 71.6719 110.554 65.0621 111.24 58.1159C111.926 52.179 112.279 46.2421 112.612 40.0479C112.964 35.1994 113.297 29.9749 113.983 25.1264C114.156 22.5526 114.503 19.9937 115.022 17.4678C115.374 13.3119 118.803 10.5216 121.899 11.5309C122.585 11.8673 123.271 12.2235 123.858 10.8382C124.211 9.78936 124.897 10.8382 125.583 10.482C128.057 9.42016 130.801 9.17767 133.42 9.78936C134.895 9.727 136.363 10.0213 137.702 10.6478C139.042 11.2743 140.214 12.2148 141.12 13.3911C144.216 16.5179 147.665 19.328 149.722 23.4641C150.708 25.8841 151.175 28.4874 151.093 31.1029C151.093 40.4832 149.134 49.5074 146.959 58.5513C145.588 64.1122 144.569 69.6533 143.178 75.2142C142.777 77.6852 142.208 80.1252 141.473 82.5166C141.043 83.9958 140.812 85.5268 140.787 87.0683C140.082 93.3218 139.749 99.5754 138.71 105.829C138.673 106.154 138.716 106.483 138.836 106.787C138.956 107.091 139.148 107.36 139.396 107.57C141.12 103.751 142.845 100.268 144.216 96.4486C147.312 89.5024 150.094 82.5958 153.151 75.2538C156.916 66.2257 161.167 57.4127 165.887 48.8543C166.553 47.6681 167.017 46.3768 167.258 45.0349C167.944 39.474 168.982 34.2693 170.021 29.0646C170.354 26.9669 172.078 25.9378 172.411 24.1963C172.601 24.0028 172.849 23.8777 173.117 23.8401C173.802 25.2451 174.821 23.8401 175.507 23.5037C177.917 22.1184 179.994 23.1474 182.051 23.5037C182.679 23.8833 183.381 24.1197 184.109 24.1963C185.147 24.5327 186.519 25.5816 187.557 25.9378C190.009 27.0337 192.319 28.4295 194.434 30.0936C200.312 33.2204 201.645 40.5228 200.626 47.9044C200.491 49.7099 200.026 51.4746 199.254 53.1091C198.111 56.9888 197.304 60.9618 196.844 64.9829C196.441 67.0441 196.211 69.1361 196.159 71.2365C195.473 82.0021 194.767 93.1239 194.434 104.226C193.729 110.625 193.526 117.07 193.827 123.501C194.16 125.935 194.513 128.369 195.198 131.417C196.492 127.321 197.53 124.194 198.902 121.067Z" fill="white"/>
<path d="M230.878 155.462C230.193 155.125 230.193 154.076 230.545 153.483V152.374C229.859 152.038 230.193 153.423 229.507 153.423C227.837 152.108 226.634 150.282 226.078 148.219C225.392 146.121 224.354 143.687 225.725 141.253C227.259 137.699 229.35 134.418 231.917 131.536C233.528 129.859 235.56 128.656 237.795 128.053C238.481 127.716 239.166 128.409 239.499 128.409C241.576 129.458 243.281 130.843 245.378 131.892C245.711 132.229 246.396 132.585 246.396 133.277C246.404 133.545 246.47 133.807 246.588 134.046C246.706 134.286 246.875 134.496 247.082 134.663C247.985 135.483 248.591 136.583 248.806 137.789C250.883 140.916 249.492 144.043 248.473 146.814C248.097 147.909 247.461 148.894 246.621 149.684C245.781 150.474 244.762 151.045 243.653 151.345C242.017 151.576 240.533 152.442 239.519 153.76C239.186 154.472 238.833 154.809 238.148 154.116C237.814 153.76 237.462 154.116 237.109 154.116C237.05 154.281 236.957 154.431 236.836 154.556C236.716 154.682 236.571 154.781 236.41 154.846C236.249 154.912 236.076 154.942 235.903 154.936C235.73 154.929 235.56 154.886 235.404 154.809C235.404 154.472 235.052 154.809 234.719 155.165C233.327 156.194 233.327 156.194 232.642 154.472C231.917 154.353 231.917 156.154 230.878 155.462Z" fill="white"/>
</svg>
